<svg width="27" height="26" viewBox="0 0 27 26" fill="none" xmlns="http://www.w3.org/2000/svg">
<path d="M19.3792 16.1307C18.1392 18.2757 16.0805 19.5057 13.7305 19.5057C11.3805 19.5057 9.32172 18.2757 8.08172 16.1307C7.99206 15.9593 7.97209 15.7599 8.02599 15.5741C8.07988 15.3883 8.20348 15.2306 8.37095 15.1338C8.53843 15.037 8.73683 15.0086 8.92472 15.0546C9.11261 15.1006 9.27545 15.2175 9.37922 15.3807C10.3592 17.0732 11.9042 18.0057 13.7305 18.0057C15.5567 18.0057 17.1055 17.0732 18.0817 15.3807C18.1286 15.2911 18.1931 15.2119 18.2714 15.1478C18.3497 15.0838 18.4402 15.0363 18.5373 15.0081C18.6345 14.9799 18.7363 14.9717 18.8367 14.9839C18.9371 14.996 19.034 15.0284 19.1216 15.0791C19.2092 15.1297 19.2856 15.1975 19.3463 15.2784C19.407 15.3593 19.4507 15.4517 19.4748 15.5499C19.4988 15.6482 19.5028 15.7503 19.4863 15.8501C19.4699 15.9499 19.4335 16.0454 19.3792 16.1307ZM26.4805 12.7557C26.4805 15.2774 25.7327 17.7425 24.3317 19.8393C22.9307 21.936 20.9394 23.5702 18.6097 24.5352C16.2799 25.5002 13.7163 25.7527 11.2431 25.2607C8.76981 24.7688 6.49798 23.5545 4.71486 21.7713C2.93174 19.9882 1.71742 17.7164 1.22546 15.2431C0.733501 12.7699 0.985993 10.2063 1.95101 7.87652C2.91603 5.54677 4.55023 3.55549 6.64695 2.1545C8.74368 0.753512 11.2088 0.0057373 13.7305 0.0057373C17.1108 0.00970712 20.3515 1.35428 22.7417 3.74451C25.1319 6.13474 26.4765 9.37545 26.4805 12.7557ZM24.9805 12.7557C24.9805 10.5307 24.3207 8.35563 23.0845 6.50557C21.8483 4.65552 20.0913 3.21358 18.0357 2.36209C15.98 1.51061 13.718 1.28782 11.5357 1.7219C9.35342 2.15599 7.34886 3.22745 5.77552 4.80079C4.20218 6.37413 3.13072 8.37868 2.69664 10.561C2.26256 12.7433 2.48534 15.0053 3.33683 17.0609C4.18832 19.1166 5.63026 20.8736 7.48031 22.1098C9.33036 23.3459 11.5054 24.0057 13.7305 24.0057C16.7131 24.0024 19.5727 22.8161 21.6818 20.707C23.7908 18.598 24.9772 15.7384 24.9805 12.7557ZM9.23047 11.5057C9.4777 11.5057 9.71938 11.4324 9.92494 11.2951C10.1305 11.1577 10.2907 10.9625 10.3853 10.7341C10.4799 10.5057 10.5047 10.2544 10.4565 10.0119C10.4082 9.7694 10.2892 9.54667 10.1144 9.37185C9.93954 9.19704 9.71681 9.07799 9.47434 9.02976C9.23186 8.98152 8.98053 9.00628 8.75212 9.10089C8.52371 9.1955 8.32849 9.35571 8.19114 9.56127C8.05379 9.76684 7.98047 10.0085 7.98047 10.2557C7.98047 10.5873 8.11217 10.9052 8.34659 11.1396C8.58101 11.374 8.89895 11.5057 9.23047 11.5057ZM18.2305 9.00574C17.9832 9.00574 17.7416 9.07905 17.536 9.2164C17.3305 9.35375 17.1702 9.54897 17.0756 9.77738C16.981 10.0058 16.9563 10.2571 17.0045 10.4996C17.0527 10.7421 17.1718 10.9648 17.3466 11.1396C17.5214 11.3144 17.7441 11.4335 17.9866 11.4817C18.2291 11.53 18.4804 11.5052 18.7088 11.4106C18.9372 11.316 19.1325 11.1558 19.2698 10.9502C19.4072 10.7446 19.4805 10.503 19.4805 10.2557C19.4805 9.92422 19.3488 9.60627 19.1144 9.37185C18.8799 9.13743 18.562 9.00574 18.2305 9.00574Z" fill="black"/>
</svg>
