<svg width="76" height="53" viewBox="0 0 76 53" fill="none" xmlns="http://www.w3.org/2000/svg">
<path d="M43.0111 24.4326H50.8835V17.2906H43.0111V24.4326ZM33.6395 24.4326H41.5116V17.2906H33.6395V24.4326ZM24.4549 24.4326H32.3274V17.2906H24.4549V24.4326ZM15.2703 24.4326H22.9558V17.2906H15.2707L15.2703 24.4326ZM5.89874 24.4326H13.7712V17.2906H5.89874V24.4326ZM15.2707 15.7871H22.9554V8.64549H15.2707V15.7871ZM24.4553 15.7871H32.3274V8.64549H24.4549L24.4553 15.7871ZM33.6395 15.7871H41.5116V8.64549H33.6395V15.7871ZM33.6395 7.14157H41.5116V0H33.6395V7.14157ZM76 21.238C76 21.238 72.626 18.0427 65.691 19.1706C64.9412 13.72 59.1307 10.5251 59.1307 10.5251C59.1307 10.5251 53.6951 17.1031 57.6312 24.4329C56.5068 24.9968 54.6322 25.7486 51.8206 25.7486H0.275876C-0.661584 29.3196 -0.661582 53 25.2046 53C43.7608 53 57.6312 44.3549 64.1915 28.5674C73.9381 29.3192 76 21.238 76 21.238Z" fill="white"/>
</svg>
