<svg width="75" height="75" viewBox="0 0 75 75" fill="none" xmlns="http://www.w3.org/2000/svg">
<g clip-path="url(#clip0_202_426)">
<path d="M21.9497 7.21849C24.2965 8.01346 26.529 9.11239 28.5904 10.4872C31.5016 9.7432 34.495 9.36942 37.4997 9.37474C40.6029 9.37474 43.5966 9.76224 46.4029 10.4841C48.4634 9.1106 50.6948 8.01273 53.0404 7.21849C55.2185 6.47786 58.3216 5.27786 60.1654 7.31849C61.4154 8.70599 61.7279 11.031 61.9497 12.806C62.1997 14.7872 62.2591 17.3685 61.6029 19.931C64.1122 23.1716 65.6247 27.0372 65.6247 31.2497C65.6247 37.631 62.1685 43.1716 57.0529 47.0091C54.5909 48.8326 51.8604 50.2622 48.9591 51.2466C49.6279 52.7779 49.9997 54.4716 49.9997 56.2497V65.6247C49.9997 66.4535 49.6705 67.2484 49.0844 67.8344C48.4984 68.4205 47.7035 68.7497 46.8747 68.7497H28.1247C27.2959 68.7497 26.5011 68.4205 25.915 67.8344C25.329 67.2484 24.9997 66.4535 24.9997 65.6247V62.5279C22.0154 62.8935 19.5122 62.5685 17.3841 61.6654C15.1591 60.7216 13.6091 59.2591 12.4435 57.8591C11.3372 56.5341 10.131 53.5466 8.38724 52.9654C7.99779 52.8357 7.63769 52.6306 7.32751 52.3617C7.01733 52.0929 6.76314 51.7656 6.57946 51.3985C6.20849 50.6571 6.14721 49.7988 6.40912 49.0122C6.67102 48.2257 7.23464 47.5754 7.97599 47.2045C8.71735 46.8335 9.57571 46.7722 10.3622 47.0341C12.4435 47.7279 13.7997 49.2279 14.7279 50.4341C16.2279 52.3716 17.4466 54.9029 19.8216 55.9122C20.7997 56.3279 22.2341 56.5997 24.4779 56.2935L24.9997 56.1872C25.0057 54.4866 25.3599 52.8052 26.0404 51.2466C23.1391 50.2623 20.4085 48.8327 17.9466 47.0091C12.831 43.1716 9.37474 37.6341 9.37474 31.2497C9.37474 27.0435 10.8841 23.181 13.3872 19.9435C12.731 17.381 12.7872 14.7935 13.0372 12.8091L13.0529 12.6904C13.281 10.8716 13.5466 8.73099 14.8216 7.31849C16.6654 5.27786 19.7716 6.48099 21.9466 7.22161L21.9497 7.21849Z" fill="black"/>
</g>
<defs>
<clipPath id="clip0_202_426">
<rect width="75" height="75" fill="white"/>
</clipPath>
</defs>
</svg>
