<svg width="79" height="54" viewBox="0 0 79 54" fill="none" xmlns="http://www.w3.org/2000/svg">
<g clip-path="url(#clip0_214_126)">
<path d="M23.501 35.6334L25.9018 43.4451C26.4412 45.2188 26.6662 46.4569 26.5761 47.1626C27.8892 43.6361 28.8066 39.7929 29.3286 35.6334H32.2155C30.9742 42.4052 29.3369 47.3262 27.3047 50.396C25.7213 52.7616 23.9867 53.9443 22.0978 53.9443C21.5942 53.9443 20.9733 53.7918 20.2365 53.4888V51.8564C20.5965 51.9094 21.0188 51.9377 21.5045 51.9377C22.3857 51.9377 23.0959 51.6927 23.6363 51.204C24.2832 50.6084 24.6071 49.9391 24.6071 49.1971C24.6071 48.6906 24.3545 47.6509 23.8517 46.0783L20.5065 35.6334H23.501ZM5.12621 30.832L9.52367 44.2865H9.55082L13.9753 30.832H17.5902C18.3817 37.5045 18.8492 43.6096 18.9927 49.1434H15.945C15.8378 43.9704 15.5408 39.1061 15.0551 34.5495H15.0285L10.3876 49.1434H8.06664L3.45378 34.5495H3.42663C3.08439 38.9255 2.869 43.7899 2.7792 49.1434H0C0.179602 42.6325 0.629068 36.5293 1.3484 30.832H5.12621Z" fill="#00758F"/>
<path d="M54.3893 30.5603C59.1196 30.5603 61.4848 33.5908 61.4848 39.6489C61.4848 42.9409 60.7735 45.4275 59.3522 47.1074C59.0961 47.4144 58.813 47.6796 58.5149 47.9253L61.8624 49.585L61.8591 49.5849L60.6706 51.6431L56.3112 49.0924C55.5886 49.307 54.7935 49.4142 53.9272 49.4142C51.6045 49.4142 49.8696 48.7354 48.7226 47.3796C47.4635 45.8796 46.8343 43.5183 46.8343 40.2997C46.8343 37.0263 47.5444 34.5491 48.9661 32.867C50.2609 31.3284 52.069 30.5603 54.3893 30.5603ZM39.9039 30.5868C41.5945 30.5868 43.1318 31.0405 44.5165 31.9445L43.8132 33.5161C42.6283 33.0111 41.4601 32.7575 40.3082 32.7575C39.3734 32.7575 38.6532 32.9831 38.1511 33.437C37.6462 33.887 37.3339 34.466 37.3339 35.1718C37.3339 36.2565 38.1045 37.1971 39.5273 37.9918C39.9934 38.2473 40.4579 38.5057 40.9207 38.7671L41.0269 38.827L41.0801 38.857L41.1864 38.9169L41.2395 38.9469L41.3457 39.0069C42.4226 39.6158 43.4361 40.1969 43.4361 40.1969C44.8587 41.2096 45.5678 42.2893 45.5678 44.0676C45.5678 45.6206 45.0003 46.8954 43.869 47.8929C42.7369 48.886 41.216 49.3839 39.3114 49.3839C37.53 49.3839 35.8036 48.8108 34.1313 47.6742L34.9136 46.1012C36.3528 46.8245 37.655 47.1858 38.8244 47.1858C39.9212 47.1858 40.7797 46.9403 41.4007 46.4554C42.0205 45.9669 42.3919 45.2856 42.3919 44.4218C42.3919 43.3345 41.6377 42.4051 40.2542 41.6254C39.8211 41.3855 39.3893 41.1432 38.9588 40.8986L38.8528 40.8384C38.6581 40.7281 38.462 40.6164 38.2699 40.507L38.1657 40.4476C37.2315 39.9147 36.4237 39.4491 36.4237 39.4491C35.0406 38.4346 34.3471 37.3461 34.3471 35.5525C34.3471 34.0691 34.8643 32.8701 35.8971 31.958C36.9325 31.0439 38.2682 30.5868 39.9039 30.5868ZM67.0439 30.8319V46.8908H72.7897V49.1433H64.1299V30.832L67.0439 30.8319ZM75.9824 46.8977V47.2784H75.3507V49.1413H74.8677V47.2784H74.2115V46.8977H75.9824ZM77.1488 46.8977L77.7554 48.4271L78.3126 46.8977H78.9972V49.1413H78.542V47.4339L77.9078 49.1413H77.5797L76.9444 47.4339H76.92V49.1413H76.4894V46.8977H77.1488ZM54.0918 32.8122C51.3043 32.8122 49.9097 35.1192 49.9097 39.7301C49.9097 42.3713 50.2793 44.2865 51.017 45.4803C51.7002 46.585 52.7703 47.1363 54.2273 47.1363C57.0148 47.1363 58.4092 44.8114 58.4092 40.1637C58.4092 37.5594 58.0396 35.6606 57.3029 34.4663C56.6189 33.364 55.5493 32.8122 54.092 32.8122" fill="#F29111"/>
<path d="M46.7856 1.13463C47.7103 -1.14389 50.9436 0.581632 52.1984 1.37755C52.5059 1.57669 52.8586 1.99739 53.2112 2.15289C53.7612 2.17455 54.3108 2.21772 54.8618 2.24078C55.8953 2.48432 56.8634 2.6833 57.6777 3.14841C61.4623 5.38345 63.926 7.66105 66.1934 11.4231C66.6779 12.2199 66.92 13.0822 67.3157 13.9445C67.865 15.2299 68.4822 16.5791 69.1198 17.7945C69.4052 18.3707 69.626 19.0114 70.0224 19.498C70.1772 19.7205 70.6168 19.7861 70.8795 19.919C71.606 20.2961 72.4861 20.5824 73.1693 21.0249C74.4452 21.8227 75.6788 22.7733 76.8002 23.7465C77.2182 24.1222 77.503 24.654 77.9013 25.0514V25.2519C77.5478 25.3607 77.1955 25.4721 76.843 25.5614C76.0729 25.7597 75.3907 25.7148 74.6436 25.9134C74.182 26.0477 73.6087 26.2248 73.1246 26.2699L73.1693 26.315C73.4541 27.1312 74.9953 27.795 75.7001 28.2832C76.5561 28.9027 77.3494 29.6541 77.9878 30.517C78.2083 30.7372 78.4288 30.9375 78.6482 31.1571C78.8016 31.3796 78.8448 31.6674 79 31.8657V31.9329C78.8281 31.8721 78.7045 31.756 78.5874 31.6347L78.5175 31.5615C78.4476 31.4888 78.3771 31.4173 78.2967 31.3584C77.811 31.0257 77.3287 30.6278 76.843 30.3185C76.0079 29.7871 75.0394 29.4788 74.182 28.9454C73.6972 28.6358 73.235 28.2832 72.7729 27.9288C72.354 27.6183 71.8927 27.022 71.6294 26.5795C71.4744 26.335 71.4531 26.0477 71.2759 25.8708C71.3076 25.5754 71.5774 25.4877 71.8498 25.4156L71.9124 25.399C72.0064 25.3746 72.0983 25.3501 72.1786 25.3178C73.3225 24.8307 74.6864 24.654 76.4475 24.6983C76.3811 24.2548 75.2807 23.7023 74.9294 23.4368C74.2242 22.9271 73.4776 22.3953 72.7296 21.9314C72.3332 21.6885 71.6501 21.5112 71.211 21.3127C70.6168 21.0691 69.2961 20.8258 68.9669 20.3619C68.4076 19.6306 68.0058 18.7584 67.6157 17.8774L67.5095 17.637C67.4741 17.5568 67.4387 17.4767 67.4031 17.3967C66.942 16.3357 66.3693 15.2296 65.9072 14.1432C65.6655 13.6133 65.5546 13.1482 65.29 12.6399C63.6842 9.52088 61.3076 6.90953 58.4261 5.07307C57.4792 4.47551 56.4233 3.92251 55.2578 3.54668C54.5972 3.34662 53.8044 3.45725 53.1007 3.30376H52.6375C52.2422 3.19204 51.9121 2.7718 51.6037 2.55023C50.9225 2.08636 50.2402 1.77489 49.4255 1.44393C49.14 1.31117 48.3249 1.00203 48.0404 1.24541C47.8642 1.28982 47.7748 1.35651 47.7315 1.53383C47.5562 1.79841 47.7103 2.19699 47.8194 2.441C48.1499 3.1481 48.6116 3.56834 49.0306 4.1659C49.4034 4.69584 49.8665 5.2934 50.1308 5.86961C50.7011 7.10821 50.9666 8.48049 51.4951 9.71893C51.691 10.1847 52.001 10.7146 52.2863 11.1347C52.5281 11.4681 52.9677 11.7092 53.1007 12.1313C53.3658 12.5738 52.7038 14.034 52.5506 14.4977C51.9774 16.3122 52.0885 18.8344 52.7486 20.4072L52.7838 20.4901L52.8189 20.5742C53.06 21.1502 53.3179 21.7705 53.9587 21.9316C54.0029 21.8876 53.9587 21.9107 54.0462 21.8876C54.2013 20.6703 54.2449 19.4979 54.6634 18.5454C54.9052 17.9498 55.388 17.5288 55.7189 17.0427C55.9396 17.1751 55.9396 17.5745 56.0711 17.8387C56.3574 18.5242 56.6649 19.2757 57.018 19.9631C57.7426 21.3789 58.5579 22.7515 59.4816 23.9899C59.791 24.4323 60.23 24.9192 60.6259 25.3177C60.8023 25.4719 60.9998 25.561 61.1323 25.7596H61.1755V25.8264C60.5154 25.5824 60.097 24.8976 59.5705 24.4978C58.5793 23.7462 57.3923 22.6177 56.7091 21.5347C56.4233 20.913 56.1144 20.3172 55.8064 19.6986V19.6538C55.6748 19.8305 55.7189 20.006 55.6531 20.2734C55.3673 21.3789 55.5873 22.6401 54.5972 23.0377C53.4749 23.5035 52.6376 22.2862 52.2863 21.7331C51.1636 19.8971 50.8561 16.7997 51.6478 14.2995C51.8237 13.746 51.8476 13.0822 52.1547 12.6403C52.0883 12.2408 51.7813 12.1316 51.6037 11.8868C51.2957 11.4684 51.032 10.981 50.7909 10.5164C50.3277 9.60876 49.9981 8.52427 49.6464 7.55088C49.4918 7.15339 49.4476 6.75434 49.2934 6.37804C49.0305 5.8037 48.5458 5.22749 48.172 4.71936C47.6657 3.98905 46.1913 2.5736 46.7856 1.13463ZM54.0024 5.46933C54.0612 5.52843 54.1322 5.58011 54.2056 5.63102L54.2942 5.69198C54.4122 5.77399 54.5265 5.86033 54.5966 5.97792C54.7077 6.13357 54.7284 6.28722 54.8614 6.44318C54.8614 6.97498 54.7077 7.32854 54.3974 7.54887C54.3974 7.54887 54.3763 7.57208 54.3545 7.59374C54.1786 7.23926 54.0245 6.88664 53.8473 6.53246C53.6291 6.22332 53.3207 5.97807 53.143 5.62483H53.1002V5.58042C53.3658 5.51466 53.6291 5.46933 54.0024 5.46933Z" fill="#00758F"/>
</g>
<defs>
<clipPath id="clip0_214_126">
<rect width="79" height="54" fill="white"/>
</clipPath>
</defs>
</svg>
