<svg width="99" height="99" viewBox="0 0 99 99" fill="none" xmlns="http://www.w3.org/2000/svg">
<circle cx="49.5" cy="49.5" r="49.5" fill="black"/>
<g clip-path="url(#clip0_214_141)">
<path d="M54.0153 17.2124C53.5383 17.2124 53.0612 17.3182 52.6373 17.477C53.5383 18.0603 54.0153 18.8551 54.2804 19.7561C54.2804 19.8623 54.3336 19.9686 54.3336 20.0743C54.3336 20.1805 54.3867 20.2863 54.3867 20.392C54.4398 21.9294 53.9622 22.1414 53.6445 23.0424C53.1143 24.2079 53.2737 25.4803 53.9096 26.487C53.9627 26.5933 54.0159 26.7526 54.1216 26.8584C53.4326 22.4065 57.1423 21.77 57.8313 20.392C57.8844 19.1733 56.8777 18.3785 56.0824 17.7952C55.2877 17.3182 54.6512 17.2119 54.0159 17.2119L54.0153 17.2124ZM59.5812 18.1655C59.5281 18.5894 59.5812 18.4837 59.5281 18.6957C59.5281 18.8545 59.5281 19.0134 59.475 19.1728C59.4219 19.3316 59.4219 19.4379 59.3687 19.5967C59.3156 19.7561 59.263 19.8618 59.2099 20.0206C59.1568 20.1269 59.1037 20.2326 59.0505 20.3914C58.9979 20.4446 58.9448 20.5508 58.8922 20.6039C58.8391 20.6571 58.8391 20.7097 58.786 20.7628C58.6797 20.869 58.6266 21.0274 58.5209 21.1336L58.2032 21.4518C58.0969 21.5581 57.9907 21.6638 57.885 21.7164C57.5142 21.982 57.0902 22.1934 56.7189 22.4585C56.6126 22.5648 56.4538 22.6179 56.3481 22.7236C56.2418 22.8299 56.1356 22.883 56.0298 22.9887L55.7122 23.3064C55.6059 23.4127 55.4996 23.5189 55.4465 23.6778C55.3408 23.784 55.2877 23.9429 55.182 24.0486C55.1288 24.2079 55.0757 24.3137 54.97 24.4725C54.9169 24.6319 54.8637 24.7381 54.8106 24.8964C54.7575 25.0558 54.7049 25.2147 54.7049 25.3204C54.7049 25.3735 54.7049 25.4798 54.6518 25.5329C54.6518 25.586 54.6518 25.6917 54.5987 25.7449V26.4865C54.5987 26.6459 54.5987 26.7521 54.6518 26.9104C54.6518 27.0698 54.7049 27.176 54.758 27.3349C54.8112 27.4937 54.8643 27.5994 54.9174 27.7588C54.97 27.8651 55.0231 27.9177 55.0231 28.0239L50.9947 26.4865C50.3302 26.2852 49.6586 26.1086 48.9812 25.9568C48.6099 25.8506 48.2391 25.7974 47.8677 25.6912C46.8161 25.4806 45.7548 25.3216 44.6877 25.2147H44.5814C43.5216 25.1084 42.5148 25.0553 41.455 25.0553C40.6597 25.0553 39.9176 25.1084 39.1759 25.1615C38.1156 25.2147 37.0562 25.374 35.9959 25.5329L35.2006 25.6917C34.6709 25.798 34.1407 25.9037 33.6106 26.0625C33.3455 26.1157 33.0809 26.2219 32.8158 26.275C32.5507 26.3808 32.2856 26.4865 32.0737 26.5927C31.8617 26.699 31.7028 26.7521 31.4909 26.8578C31.4377 26.8578 31.4377 26.8578 31.3846 26.9109C31.2252 27.0167 31.0669 27.0698 30.9076 27.1755C30.8544 27.1755 30.8013 27.2286 30.8013 27.2286C30.5899 27.3349 30.4305 27.4411 30.2717 27.4937C30.1654 27.5469 30.0066 27.6 29.9008 27.6531C29.8477 27.7057 29.7946 27.7057 29.7415 27.7588C29.5826 27.8651 29.4238 27.9177 29.2644 28.0234C29.1056 28.1296 28.9467 28.1828 28.8405 28.289C28.7342 28.3947 28.5754 28.4479 28.4697 28.5536C28.4697 28.5536 28.4165 28.5536 28.4165 28.6067C28.3103 28.6598 28.2046 28.7661 28.0988 28.8718L28.0457 28.9249C27.9395 28.978 27.8863 29.0838 27.7806 29.1369C27.7275 29.1369 27.7275 29.19 27.6744 29.19C27.5687 29.2431 27.5155 29.3489 27.4098 29.4014C27.4098 29.4546 27.3567 29.4546 27.3567 29.4546L27.0385 29.7728L26.9853 29.8259L26.6677 30.1436C26.6677 30.1436 26.6677 30.1967 26.6145 30.1967L26.3494 30.4618C26.2963 30.5149 26.2432 30.5149 26.2432 30.5681L25.9255 30.8858C25.9255 30.9389 25.8724 30.9389 25.8724 30.992L25.4484 31.4154L25.3953 31.4685C25.1307 31.7868 24.8125 32.0519 24.4948 32.3169C24.1766 32.5815 23.8584 32.8466 23.4876 33.1117C23.1168 33.3768 22.7986 33.5888 22.4277 33.8007C22.0564 34.0127 21.6856 34.1715 21.3148 34.3309C20.9434 34.4898 20.5726 34.6486 20.2018 34.7549C19.4597 34.9142 18.7175 35.2319 18.0816 35.2845C18.0816 35.0199 17.9222 35.0725 17.7634 35.0725C17.6045 35.1257 17.4457 35.1257 17.3394 35.1788C17.1801 35.2319 17.0743 35.285 16.9155 35.3382C16.7643 35.3868 16.6214 35.4581 16.4916 35.5496C16.3853 35.6559 16.2265 35.709 16.1207 35.8152C16.0145 35.9209 15.8551 36.0267 15.7494 36.1329C15.6432 36.2392 15.4843 36.3449 15.3786 36.4506C15.2723 36.5569 15.1661 36.6631 15.0604 36.8219C14.9541 36.9808 14.8484 37.0865 14.7953 37.2459C14.6896 37.3521 14.6364 37.511 14.5307 37.6698C14.4776 37.8292 14.3713 37.9875 14.3182 38.1469L14.1594 38.6239C14.1062 38.7828 14.1062 38.8885 14.0531 39.0479V39.101C14 39.2604 14 39.4718 14 39.5781C14.0531 39.5249 14.0531 39.6312 14.0531 39.7369V39.9489C14.0531 40.0551 14.1062 40.1609 14.1062 40.2666C14.1594 40.3728 14.1594 40.4791 14.2125 40.5848C14.2651 40.691 14.3182 40.7968 14.4239 40.903C14.4771 41.0093 14.5833 41.115 14.6364 41.2207C14.7422 41.3269 14.8479 41.4332 14.9541 41.4858C15.0604 41.592 15.1661 41.6983 15.2718 41.7509C15.6957 42.1217 15.802 42.2279 16.3322 42.5456C16.4384 42.5988 16.491 42.6519 16.5973 42.705H16.6504V42.8113C16.6504 42.9696 16.7035 43.0758 16.7561 43.2347C16.8092 43.394 16.8624 43.5529 16.9155 43.6586L17.0738 43.9768C17.0738 44.0299 17.1269 44.0299 17.1269 44.0831C17.1801 44.2419 17.2863 44.3476 17.3394 44.4539C17.4452 44.5601 17.4983 44.719 17.604 44.8247L17.9222 45.1429L18.2399 45.4606H18.293C18.3993 45.5669 18.505 45.62 18.6112 45.7262C18.7175 45.8325 18.8763 45.8851 18.9821 45.9377C19.0883 45.9908 19.2472 46.097 19.406 46.1502C19.5122 46.2033 19.6185 46.2559 19.7768 46.2559C19.7768 46.2559 19.8299 46.2559 19.8299 46.309C19.8831 46.309 19.9893 46.3621 20.0424 46.3621C19.9893 47.3157 19.9893 48.2167 20.0956 48.5349C20.2539 48.9058 21.0492 47.7928 21.7913 46.5741C21.6851 47.7928 21.6319 49.224 21.7913 49.6479C22.0033 50.0719 23.01 48.6938 23.9641 47.2095C36.3662 44.3476 47.7083 52.9337 48.9276 65.0712C48.7151 63.1629 46.3829 62.1031 45.2704 62.3682C44.7402 63.64 43.8392 65.3363 42.4086 66.343C42.5143 65.1769 42.4617 64.0108 42.2492 62.8452C41.8784 64.4353 41.1362 65.9722 40.0764 67.244C38.4332 67.3502 36.7375 66.5549 35.8891 65.3363C35.836 65.2831 35.7828 65.1769 35.7302 65.1238C35.6771 65.018 35.624 64.8592 35.5709 64.7529C35.5177 64.6467 35.4652 64.4879 35.4652 64.3821V63.7462C35.4652 63.64 35.5183 63.4806 35.5714 63.3749C35.6245 63.2692 35.6245 63.1098 35.6777 63.0041C35.7302 62.8978 35.7834 62.739 35.8891 62.6333C36.2073 61.7849 36.2073 61.0958 35.624 60.725L35.3063 60.5656C35.2532 60.5656 35.1469 60.513 35.0938 60.513C35.0407 60.513 34.9881 60.4599 34.935 60.4599C34.8292 60.4068 34.6704 60.4068 34.5642 60.3537C34.4579 60.3005 34.2991 60.3005 34.1933 60.3005C34.0871 60.3005 33.9277 60.2479 33.822 60.2479H33.5574C33.3981 60.2479 33.2918 60.2479 33.1861 60.3011C33.0798 60.3011 32.921 60.3542 32.8153 60.3542C32.709 60.4073 32.5502 60.4073 32.4439 60.4604C32.3382 60.513 32.232 60.5662 32.0731 60.6188L31.7549 60.7781C27.6738 63.428 30.1123 69.6819 32.8684 71.4839C31.808 71.6964 30.7482 71.9078 30.43 72.1203L30.3768 72.1734C31.119 72.65 31.9143 73.0213 32.7622 73.339C33.8751 73.7104 35.0943 74.028 35.624 74.1874C37.0552 74.5051 38.5395 74.6114 40.0233 74.5051C47.7615 73.9749 54.1216 68.0393 55.2872 60.3011C55.3403 60.4604 55.3403 60.6188 55.3934 60.7781C55.4465 61.0958 55.4997 61.414 55.5528 61.7849C55.6059 61.9442 55.6059 62.1031 55.6059 62.2619V62.315C55.6059 62.4744 55.6585 62.6333 55.6585 62.7921C55.6585 63.0041 55.7116 63.1629 55.7116 63.3749V65.6008C55.7116 65.7602 55.6585 65.8664 55.6585 66.0253V66.1841C55.6585 66.3435 55.6054 66.5023 55.6054 66.7143C55.5522 66.8732 55.5522 67.032 55.4991 67.1914V67.2445C55.446 67.4034 55.446 67.5622 55.3934 67.721V67.7742C55.3403 67.9335 55.3403 68.0924 55.2872 68.2512V68.3043L55.1283 68.7814V68.8345C55.0752 68.9934 55.0221 69.2054 54.9695 69.3642C54.9163 69.5236 54.8632 69.6824 54.757 69.8944C54.7044 70.0532 54.6512 70.2652 54.5455 70.424C54.4924 70.5834 54.3862 70.7423 54.333 70.9542C54.2804 71.1136 54.1742 71.2724 54.1216 71.4313C54.1216 71.4844 54.0685 71.5375 54.0685 71.5375C54.0685 71.5375 54.0685 71.5907 54.0153 71.5907C52.9024 73.8692 51.2066 75.8832 49.0864 77.4732C48.927 77.5794 48.8213 77.6857 48.6625 77.7914C48.6093 77.8445 48.5562 77.8445 48.5562 77.8977C48.45 78.0034 48.2911 78.0565 48.1854 78.1622L48.2385 78.2685C48.5031 78.2154 48.7156 78.2154 48.9802 78.1622C49.4572 78.1091 49.8812 78.0028 50.3582 77.8971C50.4645 77.8971 50.6238 77.844 50.7296 77.7909C50.8358 77.7909 50.8884 77.7378 50.9941 77.7378C51.0998 77.7378 51.2597 77.6852 51.3655 77.6852C51.4717 77.632 51.5774 77.632 51.6832 77.5789C53.4326 77.1555 55.1283 76.5722 56.7715 75.8832C53.9622 79.6991 50.2525 82.7735 45.9063 84.7869C47.9203 84.6281 49.9343 84.3104 51.8951 83.7271C58.9365 81.6594 64.8784 76.8984 68.4313 70.4772C67.6897 74.5051 66.0992 78.3742 63.7144 81.7662C65.4107 80.6533 66.9476 79.3278 68.3787 77.8971C72.3004 73.8161 74.8972 68.5689 75.7456 63.0041C76.3289 65.7602 76.5409 68.622 76.2758 71.4313C88.9429 53.7821 77.3356 35.497 72.4598 30.6738C72.4598 30.6207 72.4067 30.6207 72.4067 30.5675C72.4067 30.78 72.4067 30.9915 72.3536 31.204C72.3004 31.6279 72.2473 31.9987 72.1942 32.3695C72.0885 32.7409 71.9827 33.1648 71.8765 33.5356C71.7702 33.907 71.6114 34.2778 71.4526 34.6486C71.2932 35.0199 71.1343 35.3908 70.9224 35.709C70.7104 36.0272 70.4984 36.398 70.2865 36.7157C70.0745 37.0339 69.8094 37.3516 69.5443 37.6698C69.2797 37.988 69.0146 38.2526 68.6964 38.5708C68.5371 38.7302 68.3787 38.889 68.1668 38.9948C68.0074 39.101 67.9011 39.2073 67.7423 39.3656C67.4246 39.6312 67.1064 39.8426 66.7356 40.0546C66.4174 40.2671 66.0466 40.4791 65.6757 40.6379L64.5622 41.115C64.1914 41.2738 63.8206 41.3801 63.4493 41.4858C63.0785 41.592 62.6545 41.6983 62.2832 41.7509C61.8592 41.804 61.4884 41.8571 61.1176 41.9103C60.852 41.9103 60.5343 41.9629 60.2692 41.9629C59.8453 41.9629 59.4745 41.9097 59.1037 41.9097C58.6792 41.8566 58.3084 41.8035 57.9376 41.7504C57.5355 41.7015 57.1427 41.5945 56.7715 41.4327C57.1423 41.3795 57.5662 41.3795 57.9376 41.2738C58.3615 41.2207 58.7323 41.1144 59.1037 41.0087C59.4745 40.9025 59.8984 40.7968 60.2166 40.6379L61.3296 40.1609C61.7004 40.0015 62.0186 39.79 62.3894 39.5781C62.7076 39.3656 63.0785 39.101 63.3967 38.889C63.7144 38.6234 64.0326 38.3589 64.2977 38.0938C64.6154 37.8287 64.8805 37.511 65.1456 37.2459C65.4107 36.9277 65.6757 36.61 65.8877 36.2918C65.9408 36.2386 65.9408 36.1855 65.994 36.1324C66.1523 35.8678 66.3642 35.5496 66.5236 35.285C66.7213 34.9425 66.8981 34.5884 67.0533 34.2247C67.2127 33.8539 67.372 33.4825 67.4777 33.1117L67.7954 31.9987C67.8486 31.5748 67.9548 31.204 67.9548 30.8326C68.0079 30.4087 68.0079 30.0379 68.0079 29.6665C68.0079 29.402 68.0079 29.0838 67.9548 28.8187C67.9017 28.3947 67.8486 28.0239 67.7954 27.6526C67.7423 27.2286 67.6361 26.8578 67.5303 26.4865C67.4241 26.1157 67.2652 25.7449 67.1595 25.3735C67.0002 25.0027 66.8413 24.6319 66.6825 24.3137C66.4705 23.9429 66.3116 23.6246 66.0997 23.2538C65.8872 22.9356 65.6226 22.6174 65.4107 22.2997C65.1456 21.9815 64.8805 21.7164 64.6154 21.3987C64.4565 21.2393 64.2977 21.0805 64.1383 20.9748C63.3436 20.3389 62.5483 19.8087 61.7004 19.2785C61.5942 19.2254 61.4884 19.1722 61.3296 19.1191C60.6406 18.5369 60.1109 18.3775 59.5812 18.1655Z" fill="#DF234F"/>
</g>
<defs>
<clipPath id="clip0_214_141">
<rect width="68" height="68" fill="white" transform="translate(14 17)"/>
</clipPath>
</defs>
</svg>
