<svg width="99" height="99" viewBox="0 0 99 99" fill="none" xmlns="http://www.w3.org/2000/svg">
<circle cx="49.5" cy="49.5" r="49.5" fill="white"/>
<circle cx="49.5" cy="49.5" r="49.5" fill="white"/>
<g clip-path="url(#clip0_214_140)">
<path d="M49.0314 74.8529C48.7505 74.8529 48.4882 74.7778 48.2446 74.6464L45.7528 73.1635C45.378 72.9569 45.5654 72.8819 45.6779 72.8444C46.1837 72.6754 46.2774 72.6378 46.802 72.3376C46.8582 72.2999 46.9333 72.3188 46.9894 72.3563L48.9005 73.5014C48.9754 73.5389 49.0691 73.5389 49.1251 73.5014L56.6008 69.1651C56.6757 69.1275 56.7133 69.0523 56.7133 68.9586V60.3049C56.7133 60.2108 56.6757 60.1359 56.6008 60.0983L49.1251 55.7808C49.0503 55.7431 48.9566 55.7431 48.9005 55.7808L41.4248 60.0983C41.3499 60.1358 41.3123 60.2297 41.3123 60.3047V68.9585C41.3123 69.0337 41.3499 69.1274 41.4248 69.1651L43.467 70.3476C44.5725 70.9107 45.2656 70.2538 45.2656 69.5968V61.0556C45.2656 60.943 45.3593 60.8303 45.4905 60.8303H46.446C46.5585 60.8303 46.6708 60.9242 46.6708 61.0556V69.5968C46.6708 71.0797 45.8651 71.9433 44.46 71.9433C44.0291 71.9433 43.6919 71.9433 42.7363 71.4739L40.7691 70.3476C40.2819 70.0662 39.9822 69.5404 39.9822 68.9773V60.3235C39.9822 59.7604 40.2819 59.2347 40.7691 58.9532L48.2446 54.6169C48.7131 54.3541 49.3502 54.3541 49.8185 54.6169L57.294 58.9532C57.7811 59.2347 58.081 59.7604 58.081 60.3235V68.9773C58.081 69.5404 57.7811 70.0662 57.294 70.3476L49.8185 74.6839C49.5748 74.7967 49.2937 74.8529 49.0314 74.8529ZM51.3362 68.9023C48.0575 68.9023 47.383 67.4005 47.383 66.1241C47.383 66.0113 47.4767 65.8988 47.6078 65.8988H48.5821C48.6944 65.8988 48.7881 65.9738 48.7881 66.0865C48.9381 67.0814 49.369 67.5694 51.355 67.5694C52.9287 67.5694 53.6034 67.2128 53.6034 66.368C53.6034 65.8799 53.4159 65.5234 50.9615 65.2793C48.9193 65.0727 47.6453 64.6223 47.6453 62.9892C47.6453 61.4686 48.9194 60.5675 51.0552 60.5675C53.4533 60.5675 54.6338 61.3936 54.7837 63.1955C54.7837 63.252 54.7649 63.3082 54.7275 63.3645C54.6899 63.4021 54.6338 63.4396 54.5775 63.4396H53.6033C53.5096 63.4396 53.4159 63.3645 53.3972 63.2707C53.1724 62.2383 52.5915 61.9003 51.0552 61.9003C49.3315 61.9003 49.1253 62.5011 49.1253 62.9515C49.1253 63.4959 49.369 63.6648 51.6922 63.9652C53.9967 64.2656 55.0835 64.6974 55.0835 66.3117C55.0647 67.9636 53.7158 68.9023 51.3362 68.9023Z" fill="#539E43"/>
<path d="M25.8365 41.0074C25.8365 40.6696 25.6491 40.3503 25.3493 40.1813L17.4053 35.6011C17.274 35.5259 17.1242 35.4884 16.9744 35.4695H16.8994C16.7496 35.4695 16.5996 35.5259 16.4685 35.6011L8.52449 40.1813C8.22459 40.3503 8.03735 40.6694 8.03735 41.0074L8.05616 53.3216C8.05616 53.4905 8.14986 53.6595 8.29965 53.7347C8.4496 53.8285 8.63683 53.8285 8.76814 53.7347L13.4896 51.0315C13.7893 50.8626 13.9767 50.5434 13.9767 50.2056V44.4426C13.9767 44.1048 14.164 43.7856 14.4639 43.6167L16.4685 42.4528C16.6185 42.3589 16.787 42.3212 16.9556 42.3212C17.1242 42.3212 17.2928 42.3589 17.4241 42.4528L19.4288 43.6167C19.7287 43.7856 19.9159 44.1046 19.9159 44.4426V50.2056C19.9159 50.5434 20.1033 50.8626 20.4031 51.0315L25.1245 53.7347C25.1974 53.7807 25.2819 53.8051 25.3681 53.8051C25.4543 53.8051 25.5387 53.7807 25.6116 53.7347C25.7616 53.6595 25.8553 53.4905 25.8553 53.3216L25.8365 41.0074ZM64.0202 24.0564C63.8704 23.9812 63.683 23.9812 63.5517 24.0564C63.4019 24.1503 63.3082 24.3004 63.3082 24.4693V36.6711C63.3082 36.7837 63.2521 36.8962 63.1396 36.9714C63.0273 37.0276 62.9148 37.0276 62.8024 36.9714L60.8164 35.8264C60.6708 35.7433 60.5062 35.6996 60.3386 35.6996C60.1711 35.6996 60.0064 35.7433 59.8608 35.8264L51.9168 40.4255C51.6171 40.5944 51.4297 40.9135 51.4297 41.2514V50.4307C51.4297 50.7685 51.6171 51.0879 51.9168 51.2568L59.8608 55.8559C60.0064 55.9389 60.1711 55.9826 60.3386 55.9826C60.5062 55.9826 60.6708 55.9389 60.8164 55.8559L68.7605 51.2568C69.0602 51.0879 69.2476 50.7687 69.2476 50.4307V27.548C69.2476 27.1913 69.0602 26.8723 68.7605 26.7032L64.0202 24.0564ZM63.2896 47.4086C63.2896 47.5024 63.2521 47.5775 63.1771 47.615L60.4605 49.1918C60.4225 49.2103 60.3808 49.22 60.3386 49.22C60.2964 49.22 60.2547 49.2103 60.2168 49.1918L57.5002 47.615C57.4251 47.5775 57.3877 47.4836 57.3877 47.4086V44.2548C57.3877 44.161 57.4251 44.0859 57.5002 44.0484L60.2168 42.4715C60.2547 42.4529 60.2964 42.4433 60.3386 42.4433C60.3808 42.4433 60.4225 42.4529 60.4605 42.4715L63.1771 44.0484C63.2521 44.0858 63.2896 44.1798 63.2896 44.2548V47.4086ZM90.4565 44.1798C90.7564 44.0109 90.925 43.6917 90.925 43.3537V41.12C90.925 40.7821 90.7376 40.463 90.4565 40.2941L82.5688 35.7138C82.4232 35.6307 82.2585 35.5871 82.091 35.5871C81.9234 35.5871 81.7587 35.6307 81.6131 35.7138L73.6691 40.3127C73.3692 40.4816 73.182 40.8008 73.182 41.1386V50.3182C73.182 50.656 73.3694 50.9751 73.6691 51.1441L81.5569 55.6493C81.8568 55.8182 82.2128 55.8182 82.4939 55.6493L87.2714 52.984C87.4213 52.9088 87.515 52.7398 87.515 52.5709C87.515 52.402 87.4213 52.2331 87.2714 52.1579L79.2899 47.5588C79.14 47.4649 79.0463 47.3148 79.0463 47.1459V44.2738C79.0463 44.1049 79.14 43.936 79.2899 43.8608L81.7817 42.4341C81.8547 42.3881 81.9391 42.3637 82.0253 42.3637C82.1115 42.3637 82.1959 42.3881 82.2689 42.4341L84.7608 43.8608C84.9108 43.9547 85.0043 44.1048 85.0043 44.2738V46.5264C85.0043 46.6954 85.098 46.8643 85.2479 46.9393C85.3209 46.9853 85.4053 47.0097 85.4915 47.0097C85.5777 47.0097 85.6621 46.9853 85.7351 46.9393L90.4565 44.1798Z" fill="#333333"/>
<path d="M81.9691 43.7479C81.9969 43.7295 82.0295 43.7197 82.0628 43.7197C82.0961 43.7197 82.1287 43.7295 82.1565 43.7479L83.6742 44.6302C83.7303 44.6678 83.7677 44.724 83.7677 44.7991V46.5638C83.7677 46.6388 83.7304 46.6952 83.6742 46.7327L82.1565 47.615C82.1287 47.6333 82.0961 47.6431 82.0628 47.6431C82.0295 47.6431 81.9969 47.6333 81.9691 47.615L80.4516 46.7327C80.3954 46.6952 80.3579 46.6388 80.3579 46.5638V44.7992C80.3579 44.724 80.3952 44.6677 80.4516 44.6303L81.9691 43.7479Z" fill="#539E43"/>
<path d="M39.1203 35.7513C38.9747 35.6683 38.8101 35.6246 38.6426 35.6246C38.4751 35.6246 38.3104 35.6683 38.1648 35.7513L30.2771 40.3126C29.9772 40.4815 29.8086 40.8007 29.8086 41.1385V50.2805C29.8086 50.6183 29.996 50.9375 30.2771 51.1064L38.1648 55.668C38.3104 55.751 38.4751 55.7947 38.6426 55.7947C38.8101 55.7947 38.9747 55.751 39.1203 55.668L47.0082 51.1064C47.308 50.9375 47.4767 50.6183 47.4767 50.2805V41.1386C47.4767 40.8008 47.2892 40.4817 47.0082 40.3127L39.1203 35.7513Z" fill="url(#paint0_linear_214_140)"/>
<mask id="mask0_214_140" style="mask-type:luminance" maskUnits="userSpaceOnUse" x="29" y="35" width="19" height="21">
<path d="M39.1203 35.7513C38.9747 35.6683 38.8101 35.6246 38.6426 35.6246C38.4751 35.6246 38.3104 35.6683 38.1648 35.7513L30.2771 40.3126C29.9772 40.4815 29.8086 40.8007 29.8086 41.1385V50.2805C29.8086 50.6183 29.996 50.9375 30.2771 51.1064L38.1648 55.668C38.3104 55.751 38.4751 55.7947 38.6426 55.7947C38.8101 55.7947 38.9747 55.751 39.1203 55.668L47.0082 51.1064C47.308 50.9375 47.4767 50.6183 47.4767 50.2805V41.1386C47.4767 40.8008 47.2892 40.4817 47.0082 40.3127L39.1203 35.7513Z" fill="white"/>
</mask>
<g mask="url(#mask0_214_140)">
<path d="M47.0267 40.3128L39.1015 35.7513C39.0237 35.712 38.942 35.6805 38.8579 35.6575L29.9771 50.9003C30.0506 50.9903 30.1395 51.0666 30.2395 51.1256L38.1647 55.6872C38.3896 55.8186 38.6518 55.8561 38.8953 55.7809L47.2329 40.5007C47.1767 40.4256 47.1016 40.369 47.0267 40.3128Z" fill="url(#paint1_linear_214_140)"/>
</g>
<mask id="mask1_214_140" style="mask-type:luminance" maskUnits="userSpaceOnUse" x="29" y="35" width="19" height="21">
<path d="M39.1203 35.7513C38.9747 35.6683 38.8101 35.6246 38.6426 35.6246C38.4751 35.6246 38.3104 35.6683 38.1648 35.7513L30.2771 40.3126C29.9772 40.4815 29.8086 40.8007 29.8086 41.1385V50.2805C29.8086 50.6183 29.996 50.9375 30.2771 51.1064L38.1648 55.668C38.3104 55.751 38.4751 55.7947 38.6426 55.7947C38.8101 55.7947 38.9747 55.751 39.1203 55.668L47.0082 51.1064C47.308 50.9375 47.4767 50.6183 47.4767 50.2805V41.1386C47.4767 40.8008 47.2892 40.4817 47.0082 40.3127L39.1203 35.7513Z" fill="white"/>
</mask>
<g mask="url(#mask1_214_140)">
<path fill-rule="evenodd" clip-rule="evenodd" d="M47.0456 51.1066C47.2705 50.9752 47.4391 50.7499 47.5141 50.506L38.8203 35.6387C38.5955 35.6011 38.3518 35.6198 38.146 35.7512L30.2769 40.2941L38.7641 55.7996C38.8875 55.7793 39.0074 55.7414 39.1201 55.687L47.0456 51.1066Z" fill="url(#paint2_linear_214_140)"/>
<path fill-rule="evenodd" clip-rule="evenodd" d="M47.0455 51.1067L39.139 55.6682C39.0273 55.7253 38.907 55.7633 38.783 55.7808L38.9329 56.0624L47.7012 50.9754V50.8627L47.4764 50.4872C47.439 50.75 47.2704 50.9753 47.0455 51.1067Z" fill="url(#paint3_linear_214_140)"/>
<path fill-rule="evenodd" clip-rule="evenodd" d="M47.0455 51.1067L39.139 55.6682C39.0273 55.7253 38.907 55.7633 38.783 55.7808L38.9329 56.0624L47.7012 50.9754V50.8627L47.4764 50.4872C47.439 50.75 47.2704 50.9753 47.0455 51.1067Z" fill="url(#paint4_linear_214_140)"/>
</g>
</g>
<defs>
<linearGradient id="paint0_linear_214_140" x1="1234.56" y1="388.338" x2="367.628" y2="1747.94" gradientUnits="userSpaceOnUse">
<stop stop-color="#41873F"/>
<stop offset="0.3288" stop-color="#418B3D"/>
<stop offset="0.6352" stop-color="#419637"/>
<stop offset="0.9319" stop-color="#3FA92D"/>
<stop offset="1" stop-color="#3FAE2A"/>
</linearGradient>
<linearGradient id="paint1_linear_214_140" x1="776.76" y1="1147.96" x2="2943.94" y2="-27.2192" gradientUnits="userSpaceOnUse">
<stop offset="0.1376" stop-color="#41873F"/>
<stop offset="0.4032" stop-color="#54A044"/>
<stop offset="0.7136" stop-color="#66B848"/>
<stop offset="0.9081" stop-color="#6CC04A"/>
</linearGradient>
<linearGradient id="paint2_linear_214_140" x1="-45.3775" y1="1044.46" x2="1779.84" y2="1044.46" gradientUnits="userSpaceOnUse">
<stop offset="0.09192" stop-color="#6CC04A"/>
<stop offset="0.2864" stop-color="#66B848"/>
<stop offset="0.5968" stop-color="#54A044"/>
<stop offset="0.8624" stop-color="#41873F"/>
</linearGradient>
<linearGradient id="paint3_linear_214_140" x1="-887.479" y1="330.782" x2="937.719" y2="330.782" gradientUnits="userSpaceOnUse">
<stop offset="0.09192" stop-color="#6CC04A"/>
<stop offset="0.2864" stop-color="#66B848"/>
<stop offset="0.5968" stop-color="#54A044"/>
<stop offset="0.8624" stop-color="#41873F"/>
</linearGradient>
<linearGradient id="paint4_linear_214_140" x1="1203.63" y1="-1126.27" x2="739.52" y2="1300.98" gradientUnits="userSpaceOnUse">
<stop stop-color="#41873F"/>
<stop offset="0.3288" stop-color="#418B3D"/>
<stop offset="0.6352" stop-color="#419637"/>
<stop offset="0.9319" stop-color="#3FA92D"/>
<stop offset="1" stop-color="#3FAE2A"/>
</linearGradient>
<clipPath id="clip0_214_140">
<rect width="83" height="51" fill="white" transform="translate(8 24)"/>
</clipPath>
</defs>
</svg>
