<svg width="21" height="21" viewBox="0 0 21 21" fill="none" xmlns="http://www.w3.org/2000/svg">
<path d="M10.75 0C8.72274 0 6.74101 0.601152 5.05541 1.72744C3.36981 2.85372 2.05604 4.45455 1.28024 6.32749C0.504441 8.20044 0.301457 10.2614 0.696956 12.2497C1.09245 14.238 2.06867 16.0644 3.50216 17.4978C4.93565 18.9313 6.76202 19.9075 8.75033 20.303C10.7386 20.6985 12.7996 20.4956 14.6725 19.7198C16.5454 18.944 18.1463 17.6302 19.2726 15.9446C20.3988 14.259 21 12.2773 21 10.25C20.9968 7.53251 19.9159 4.92724 17.9943 3.00568C16.0728 1.08412 13.4675 0.00319142 10.75 0ZM10.75 19.2941C8.96125 19.2941 7.21266 18.7637 5.72536 17.7699C4.23806 16.7761 3.07886 15.3636 2.39433 13.711C1.7098 12.0584 1.5307 10.24 1.87967 8.48558C2.22864 6.73119 3.09 5.11968 4.35485 3.85484C5.61969 2.59 7.2312 1.72863 8.98558 1.37966C10.74 1.03069 12.5584 1.2098 14.211 1.89432C15.8636 2.57885 17.2761 3.73806 18.2699 5.22536C19.2637 6.71265 19.7941 8.46124 19.7941 10.25C19.7915 12.6478 18.8377 14.9467 17.1422 16.6422C15.4467 18.3377 13.1478 19.2915 10.75 19.2941ZM6.12745 8.24019C6.12745 8.04144 6.18639 7.84716 6.29681 7.6819C6.40723 7.51665 6.56418 7.38785 6.7478 7.31179C6.93142 7.23573 7.13347 7.21583 7.3284 7.2546C7.52333 7.29338 7.70239 7.38908 7.84293 7.52962C7.98347 7.67016 8.07917 7.84922 8.11795 8.04415C8.15672 8.23908 8.13682 8.44113 8.06076 8.62475C7.98471 8.80838 7.85591 8.96532 7.69065 9.07574C7.52539 9.18616 7.33111 9.2451 7.13236 9.2451C6.86584 9.2451 6.61024 9.13922 6.42178 8.95077C6.23333 8.76231 6.12745 8.50671 6.12745 8.24019ZM15.3726 8.24019C15.3726 8.43894 15.3136 8.63323 15.2032 8.79849C15.0928 8.96374 14.9358 9.09254 14.7522 9.1686C14.5686 9.24466 14.3665 9.26456 14.1716 9.22579C13.9767 9.18701 13.7976 9.0913 13.6571 8.95077C13.5165 8.81023 13.4208 8.63117 13.3821 8.43624C13.3433 8.24131 13.3632 8.03926 13.4392 7.85564C13.5153 7.67201 13.6441 7.51507 13.8094 7.40465C13.9746 7.29423 14.1689 7.23529 14.3676 7.23529C14.6342 7.23529 14.8898 7.34117 15.0782 7.52962C15.2667 7.71808 15.3726 7.97368 15.3726 8.24019ZM15.2912 14.7721C15.3632 14.9099 15.3793 15.0702 15.336 15.2195C15.2926 15.3689 15.1933 15.4957 15.0586 15.5735C14.924 15.6514 14.7645 15.6742 14.6135 15.6372C14.4624 15.6002 14.3315 15.5062 14.2481 15.375C13.4602 14.0144 12.2182 13.2647 10.75 13.2647C9.28184 13.2647 8.03677 14.0144 7.25194 15.375C7.19899 15.4667 7.12281 15.5429 7.03108 15.5958C6.93935 15.6487 6.83529 15.6765 6.72939 15.6765C6.62343 15.6768 6.51933 15.6487 6.42792 15.5951C6.28988 15.5148 6.18929 15.3831 6.14822 15.2289C6.10715 15.0746 6.12896 14.9103 6.20885 14.7721C7.20571 13.0476 8.86079 12.0588 10.75 12.0588C12.6392 12.0588 14.2943 13.0476 15.2912 14.7721Z" fill="#ECECEC"/>
</svg>
